<?xml version="1.0" standalone="no"?>
<!DOCTYPE svg PUBLIC "-//W3C//DTD SVG 20010904//EN"
 "http://www.w3.org/TR/2001/REC-SVG-20010904/DTD/svg10.dtd">
<svg version="1.0" xmlns="http://www.w3.org/2000/svg"
 width="200.000000pt" height="200.000000pt" viewBox="0 0 200.000000 200.000000"
 preserveAspectRatio="xMidYMid meet">

<g transform="translate(0.000000,200.000000) scale(0.100000,-0.100000)"
fill="#000000" stroke="none">
<path d="M1230 1804 c-64 -12 -161 -37 -164 -43 -2 -3 39 -7 92 -8 293 -5 492
-144 612 -430 34 -80 40 -69 48 74 4 96 3 106 -22 156 -29 60 -107 139 -176
180 -86 50 -296 88 -390 71z"/>
<path d="M1104 1689 c-34 -4 -76 -14 -95 -22 -55 -23 -166 -94 -274 -175 -162
-121 -297 -172 -464 -172 l-86 -1 75 -39 c102 -53 208 -88 315 -103 l90 -14
-40 -20 c-22 -11 -65 -26 -95 -34 -71 -17 -277 -15 -395 5 -49 8 -91 14 -92
12 -2 -2 30 -37 70 -78 152 -154 335 -246 586 -292 46 -9 86 -16 90 -17 3 0
-5 -5 -19 -10 -47 -20 -209 -22 -289 -5 -41 9 -76 14 -77 13 -2 -2 20 -31 48
-65 128 -157 347 -262 581 -279 48 -3 87 -9 87 -14 0 -15 -66 -73 -103 -89
-21 -10 -35 -20 -30 -23 4 -2 42 -10 83 -17 108 -19 246 -16 314 5 68 22 141
83 167 140 26 56 25 185 -1 242 -19 42 -19 42 3 82 25 45 19 60 -15 37 -30
-21 -55 -20 -123 6 -99 38 -111 95 -30 142 48 28 70 58 61 82 -5 13 -26 15
-121 12 l-115 -3 6 52 c6 47 4 54 -20 76 -40 37 -92 59 -156 64 -51 5 -59 9
-64 29 -11 43 11 107 48 142 32 29 42 32 96 32 37 0 85 -9 123 -22 89 -31 175
-30 251 5 32 15 76 27 98 27 l39 0 -23 41 c-13 23 -49 70 -80 104 -108 117
-253 166 -424 144z m-51 -589 c68 0 108 -28 93 -65 -4 -13 -9 -12 -35 2 -28
17 -32 16 -87 -6 l-57 -24 -19 22 c-20 26 -23 75 -8 116 l10 26 34 -35 c26
-28 41 -36 69 -36z m192 -192 c50 -24 62 -48 46 -91 -20 -53 -149 -88 -185
-51 -28 27 -16 70 34 128 38 42 45 43 105 14z m158 -183 c61 -29 87 -59 87
-103 0 -47 -24 -85 -40 -62 -7 11 -10 11 -10 2 0 -7 -7 -29 -15 -49 -13 -30
-17 -33 -30 -23 -12 10 -15 10 -15 -3 0 -18 -47 -77 -61 -77 -5 0 -9 9 -9 21
0 28 -52 78 -89 85 -37 8 -91 66 -91 98 0 13 5 37 11 54 11 31 15 33 124 71
38 13 92 8 138 -14z"/>
<path d="M1834 1568 c22 -35 46 -127 46 -177 0 -61 -15 -110 -46 -156 -14 -21
-23 -39 -20 -42 8 -8 81 35 110 66 24 25 30 42 34 90 6 80 -11 125 -71 188
-52 55 -78 70 -53 31z"/>
<path d="M1630 1194 c-19 -7 -52 -13 -73 -13 -72 -1 -127 -44 -127 -97 0 -12
5 -11 26 5 15 12 38 21 53 21 50 0 97 20 131 55 18 19 32 36 29 38 -2 2 -20
-2 -39 -9z"/>
<path d="M1808 1138 c-53 -23 -59 -33 -25 -42 46 -11 104 -64 131 -118 14 -29
25 -50 26 -47 0 4 4 30 10 58 18 93 -16 172 -74 171 -11 -1 -42 -10 -68 -22z"/>
<path d="M1752 999 c4 -59 12 -87 39 -139 32 -61 34 -71 34 -162 0 -94 1 -97
17 -75 27 35 59 127 65 184 4 38 1 66 -12 100 -18 47 -91 135 -128 155 -19 10
-20 7 -15 -63z"/>
<path d="M1565 1012 c-11 -9 -29 -28 -40 -41 l-20 -24 23 8 23 7 -25 -51 c-32
-63 -33 -71 -1 -41 14 13 25 30 25 37 0 8 12 30 26 49 27 35 26 41 -7 24 -25
-14 -24 -2 3 27 25 27 22 30 -7 5z"/>
<path d="M1650 884 c15 -39 12 -96 -10 -166 -20 -63 -24 -127 -11 -183 16 -68
-44 -207 -122 -285 -28 -28 -47 -50 -43 -50 25 0 119 61 162 106 130 133 177
341 110 489 -36 79 -112 158 -86 89z"/>
</g>
</svg>
