<?xml version="1.0" standalone="no"?>
<!DOCTYPE svg PUBLIC "-//W3C//DTD SVG 20010904//EN"
 "http://www.w3.org/TR/2001/REC-SVG-20010904/DTD/svg10.dtd">
<svg version="1.0" xmlns="http://www.w3.org/2000/svg"
 width="1280.000000pt" height="1280.000000pt" viewBox="0 0 1280.000000 1280.000000"
 preserveAspectRatio="xMidYMid meet">

<g transform="translate(0.000000,1280.000000) scale(0.100000,-0.100000)"
fill="#000000" stroke="none">
<path d="M7175 9114 c-145 -19 -321 -60 -459 -106 -67 -22 -127 -43 -134 -47
-7 -4 112 -8 265 -8 304 -1 475 -18 671 -69 327 -84 613 -233 849 -443 283
-252 521 -618 677 -1046 57 -155 51 -147 69 -85 104 359 97 733 -17 973 -81
170 -306 406 -521 547 -348 227 -933 346 -1400 284z"/>
<path d="M6785 8739 c-260 -32 -363 -71 -660 -247 -163 -96 -362 -233 -620
-427 -261 -195 -327 -239 -475 -318 -257 -136 -556 -226 -855 -257 -61 -7
-201 -10 -313 -8 -111 1 -202 0 -202 -3 0 -11 106 -70 279 -158 386 -195 767
-307 1176 -344 l140 -12 -35 -27 c-93 -71 -281 -144 -455 -178 -271 -52 -721
-52 -1100 0 -148 21 -339 51 -418 66 -43 9 -81 13 -84 10 -12 -12 245 -295
377 -414 285 -258 628 -469 1000 -615 306 -121 682 -218 1020 -263 174 -23
181 -27 91 -53 -191 -58 -357 -76 -615 -68 -225 7 -391 32 -589 89 -38 11 -71
17 -74 14 -15 -15 235 -319 361 -439 396 -379 919 -624 1516 -711 128 -19 420
-46 493 -46 30 0 56 -3 60 -6 13 -13 -45 -105 -100 -159 -73 -71 -135 -112
-267 -176 -58 -29 -106 -56 -106 -60 0 -5 2 -9 5 -9 3 0 71 -13 152 -29 594
-116 1012 -106 1332 32 249 108 427 315 506 591 15 51 17 88 12 240 -7 243
-28 335 -109 487 l-41 77 51 69 c29 37 59 88 67 112 15 45 20 122 9 134 -4 3
-27 -12 -53 -33 -61 -52 -116 -70 -210 -70 -90 0 -126 9 -246 61 -150 66 -190
88 -231 130 l-39 40 0 89 c0 84 2 90 31 127 17 21 73 63 125 95 178 107 244
186 219 262 -24 72 -6 70 -422 59 -205 -5 -377 -6 -381 -3 -5 4 1 43 12 88 27
103 27 212 2 268 -11 25 -43 61 -78 90 -166 138 -319 192 -601 209 -133 9
-126 0 -126 165 0 233 90 392 273 483 72 36 77 37 186 37 152 0 273 -22 445
-81 201 -69 240 -79 361 -86 187 -11 377 34 572 134 l92 48 142 0 c79 0 143 3
143 6 0 11 -150 261 -193 321 -273 383 -653 613 -1102 667 -104 13 -347 12
-450 0z m-500 -1813 c62 -87 141 -157 201 -179 29 -10 78 -17 119 -17 149 0
260 -36 296 -94 23 -38 25 -104 3 -135 -21 -29 -47 -23 -117 25 -51 35 -54 36
-132 32 -92 -5 -191 -40 -268 -94 -26 -19 -55 -34 -65 -34 -30 0 -101 68 -129
124 -23 44 -27 63 -26 141 0 88 17 176 50 256 8 22 17 39 19 39 1 0 24 -29 49
-64z m925 -825 c177 -83 215 -131 191 -247 -6 -32 -11 -72 -11 -90 0 -29 -7
-37 -86 -88 -47 -30 -123 -70 -167 -88 -75 -30 -91 -33 -192 -33 -94 0 -117 3
-155 22 -60 30 -80 65 -80 142 0 96 54 200 184 354 54 63 79 76 151 76 51 1
75 -6 165 -48z m425 -577 c81 -21 199 -81 290 -149 67 -49 81 -65 108 -123 28
-58 32 -78 32 -147 0 -72 -3 -86 -33 -141 -19 -34 -46 -74 -61 -88 l-28 -27
-13 45 c-11 40 -35 76 -44 65 -1 -2 -7 -41 -13 -87 -12 -91 -53 -190 -97 -231
-24 -23 -26 -23 -31 -5 -14 42 -35 84 -44 84 -4 0 -11 -18 -14 -39 -7 -55 -52
-150 -90 -190 -18 -18 -54 -44 -82 -57 -53 -25 -65 -21 -65 23 0 49 -43 137
-89 183 -59 59 -124 95 -240 132 -124 40 -188 94 -242 203 -25 52 -29 71 -29
144 0 105 28 206 67 243 40 38 144 83 264 113 57 15 122 33 144 41 100 36 194
39 310 8z"/>
<path d="M9190 8391 c0 -6 17 -46 39 -89 117 -232 172 -515 142 -727 -23 -163
-102 -340 -211 -476 -28 -34 -48 -64 -46 -67 10 -9 137 41 211 84 90 52 266
221 289 276 24 57 39 195 33 307 -10 223 -113 416 -312 589 -82 72 -145 116
-145 103z"/>
<path d="M8650 7110 c-14 -11 -53 -31 -87 -44 -57 -23 -109 -32 -377 -66 -133
-16 -235 -74 -285 -162 -30 -53 -58 -166 -47 -194 5 -13 11 -10 32 16 69 81
184 130 308 130 145 0 255 48 361 156 55 57 133 169 124 179 -2 2 -15 -5 -29
-15z"/>
<path d="M9270 6924 c-94 -25 -331 -146 -316 -162 4 -3 50 -22 104 -42 227
-84 380 -239 463 -472 18 -48 35 -88 39 -88 9 0 44 126 59 214 16 86 14 252
-4 319 -52 201 -168 278 -345 231z"/>
<path d="M8945 6543 c-9 -101 0 -260 20 -354 20 -93 47 -161 105 -259 100
-170 143 -332 142 -545 0 -130 -10 -210 -48 -365 -10 -40 104 134 158 241 106
213 151 382 152 569 1 104 -3 138 -23 200 -60 192 -174 348 -374 512 -60 48
-112 88 -117 88 -4 0 -11 -39 -15 -87z"/>
<path d="M8261 6393 c-115 -115 -149 -157 -133 -166 4 -3 33 4 65 15 32 11 61
18 63 15 3 -3 -11 -30 -31 -62 -56 -86 -114 -215 -120 -265 l-6 -45 33 36 c90
98 148 167 148 178 0 7 -9 9 -25 5 -14 -3 -25 -4 -25 -1 0 3 43 56 95 119 52
62 95 116 95 120 0 12 -26 10 -86 -8 -91 -26 -93 -18 -15 80 39 48 71 90 71
92 0 12 -22 -7 -129 -113z"/>
<path d="M8584 6088 c38 -134 41 -149 41 -278 0 -180 -23 -282 -121 -541 -17
-43 -17 -59 -6 -190 7 -79 22 -192 33 -250 l19 -107 -34 -133 c-94 -365 -275
-655 -530 -847 -76 -57 -69 -64 26 -28 347 130 622 391 811 771 113 227 150
358 166 595 23 333 -51 624 -212 835 -40 53 -179 195 -190 195 -5 0 -6 -10 -3
-22z"/>
</g>
</svg>
